<?xml version="1.0" standalone="no"?>
<!DOCTYPE svg PUBLIC "-//W3C//DTD SVG 20010904//EN"
 "http://www.w3.org/TR/2001/REC-SVG-20010904/DTD/svg10.dtd">
<svg version="1.0" xmlns="http://www.w3.org/2000/svg"
 width="512.000000pt" height="512.000000pt" viewBox="0 0 512.000000 512.000000"
 preserveAspectRatio="xMidYMid meet">

<g transform="translate(0.000000,512.000000) scale(0.100000,-0.100000)"
fill="#000000" stroke="none">
<path d="M3831 5106 c-28 -15 -50 -52 -51 -83 0 -48 23 -74 104 -115 476 -239
843 -649 1016 -1133 36 -103 64 -135 116 -135 46 0 70 14 89 50 22 42 19 58
-24 173 -178 475 -528 891 -964 1146 -184 107 -236 125 -286 97z"/>
<path d="M2935 4847 c-17 -14 -28 -36 -32 -63 -5 -36 -1 -46 24 -74 l30 -33
129 -9 c71 -5 173 -18 226 -28 707 -144 1226 -748 1265 -1470 6 -113 7 -116
39 -147 34 -35 65 -41 109 -21 58 26 67 102 40 315 -64 492 -330 935 -736
1225 -113 81 -339 196 -466 238 -163 54 -374 90 -525 90 -65 0 -81 -3 -103
-23z"/>
<path d="M1601 4504 c-95 -34 -185 -116 -222 -200 l-19 -46 -55 50 c-74 68
-146 95 -250 95 -59 0 -95 -5 -138 -22 -76 -30 -164 -111 -202 -188 -27 -53
-30 -67 -30 -158 0 -87 3 -107 27 -157 14 -31 45 -77 69 -102 23 -26 40 -48
38 -50 -2 -1 -28 -16 -57 -32 -71 -37 -145 -120 -173 -192 -17 -42 -22 -78
-22 -137 0 -121 25 -177 131 -287 47 -48 83 -90 81 -92 -2 -2 -22 -13 -44 -24
-137 -69 -219 -229 -195 -380 19 -115 41 -145 322 -429 145 -146 281 -279 302
-294 52 -39 98 -39 137 0 23 23 29 38 29 72 0 42 -2 44 -289 333 -315 318
-322 326 -300 410 26 103 140 156 232 110 18 -9 174 -158 348 -330 334 -333
331 -331 394 -302 32 15 55 56 55 100 0 30 -43 75 -490 523 -493 494 -520 525
-520 592 1 79 75 162 154 170 92 11 85 17 611 -508 330 -328 499 -490 518
-495 61 -14 117 35 117 103 0 36 -21 58 -634 673 -691 692 -657 651 -643 752
6 48 30 84 77 115 43 30 87 37 141 23 40 -10 105 -72 679 -645 443 -442 644
-636 664 -641 63 -15 134 54 119 117 -3 14 -209 229 -493 514 -268 270 -496
505 -505 524 -33 66 -17 158 37 208 49 46 148 58 203 25 17 -11 303 -288 637
-617 l607 -598 -39 -51 c-85 -113 -156 -284 -180 -439 -16 -97 -7 -318 15
-402 55 -206 205 -454 303 -501 48 -23 100 -3 125 48 24 50 15 78 -50 151
-134 151 -203 335 -203 547 0 196 67 381 194 531 35 42 67 85 70 96 4 11 -36
205 -89 434 -52 228 -95 431 -95 452 0 77 51 154 125 188 83 39 198 13 249
-55 34 -43 612 -1114 653 -1207 62 -143 103 -343 103 -502 0 -38 -7 -117 -16
-175 -8 -58 -12 -117 -9 -131 4 -16 119 -139 293 -314 l287 -287 -613 -613
-612 -612 -362 361 c-200 199 -372 366 -383 372 -11 5 -49 13 -85 16 -283 30
-544 143 -742 324 -38 34 -79 64 -93 68 -72 18 -139 -48 -121 -120 15 -62 237
-235 411 -320 157 -78 387 -145 495 -146 32 0 62 -27 430 -394 262 -262 404
-397 423 -401 15 -4 39 -4 55 0 38 9 1428 1399 1437 1437 4 16 4 40 0 55 -4
18 -112 134 -311 333 l-304 306 11 104 c26 233 -17 501 -115 727 -19 43 -171
332 -339 643 -341 632 -350 646 -475 707 -74 37 -79 38 -182 37 -86 0 -114 -4
-154 -22 -170 -77 -268 -237 -253 -414 4 -40 29 -169 57 -287 27 -118 49 -216
47 -217 -1 -1 -241 233 -532 520 -606 596 -583 578 -739 583 -65 2 -104 -1
-135 -13z"/>
<path d="M304 2210 c-55 -22 -67 -102 -44 -290 28 -225 79 -392 180 -595 84
-168 173 -294 298 -426 289 -304 653 -490 1065 -544 212 -27 284 -19 313 36
23 45 17 78 -18 113 -32 32 -35 33 -148 39 -617 33 -1158 419 -1386 990 -69
172 -99 308 -112 506 -9 123 -9 125 -41 153 -32 29 -67 35 -107 18z"/>
<path d="M1501 1696 c-59 -33 -67 -102 -17 -152 50 -50 121 -42 152 17 46 91
-47 184 -135 135z"/>
<path d="M51 1326 c-28 -16 -50 -52 -51 -84 0 -31 45 -128 118 -250 168 -282
410 -537 682 -717 218 -145 530 -285 604 -271 46 9 76 47 76 97 0 55 -30 82
-135 119 -119 43 -302 134 -412 205 -300 196 -532 452 -703 778 -61 115 -82
137 -133 137 -12 -1 -33 -7 -46 -14z"/>
</g>
</svg>
